<?xml version="1.0" encoding="UTF-8" standalone="no"?><svg xmlns="http://www.w3.org/2000/svg" xmlns:xlink="http://www.w3.org/1999/xlink" contentStyleType="text/css" height="539px" preserveAspectRatio="none" style="width:436px;height:539px;background:#FFFFFF;" version="1.1" viewBox="0 0 436 539" width="436px" zoomAndPan="magnify"><defs/><g><!--MD5=[3fd616f346a44cd59a91eb10b19e157c]
class User--><g id="elem_User"><rect codeLine="2" fill="#F1F1F1" height="113.1875" id="User" rx="2.5" ry="2.5" style="stroke:#181818;stroke-width:0.5;" width="212" x="113" y="7"/><ellipse cx="198.75" cy="23" fill="#F1F1F1" rx="11" ry="11" style="stroke:#181818;stroke-width:1.0;"/><path d="M198.2344,23.5625 Q196.375,22.8594 195.7188,22.0938 Q195.0781,21.3125 195.0781,20 Q195.0781,18.3125 196.1563,17.3438 Q197.2344,16.375 199.1094,16.375 Q199.9688,16.375 200.8125,16.5781 Q201.6719,16.7656 202.5156,17.1563 L202.5156,19.5469 Q201.7344,18.9844 200.9063,18.7031 Q200.0938,18.4063 199.2969,18.4063 Q198.4219,18.4063 197.9375,18.7656 Q197.4688,19.125 197.4688,19.7813 Q197.4688,20.2969 197.8125,20.6406 Q198.1563,20.9688 199.25,21.375 L200.3125,21.7813 Q201.7969,22.3281 202.5,23.2344 Q203.2188,24.1406 203.2188,25.5156 Q203.2188,27.3906 202.1094,28.3125 Q201,29.2344 198.75,29.2344 Q197.8281,29.2344 196.9063,29.0156 Q195.9844,28.7969 195.125,28.375 L195.125,25.8438 Q196.0938,26.5313 197.0156,26.875 Q197.9375,27.2188 198.8281,27.2188 Q199.7344,27.2188 200.2344,26.8125 Q200.7344,26.3906 200.7344,25.6563 Q200.7344,25.0938 200.3906,24.6875 Q200.0625,24.2656 199.4375,24.0156 L198.2344,23.5625 Z " fill="#000000"/><text fill="#000000" font-family="sans-serif" font-size="14" lengthAdjust="spacing" textLength="32" x="219.25" y="27.8467">User</text><line style="stroke:#181818;stroke-width:0.5;" x1="114" x2="324" y1="39" y2="39"/><ellipse cx="124" cy="52.6484" fill="none" rx="3" ry="3" style="stroke:#038048;stroke-width:1.0;"/><text fill="#000000" font-family="sans-serif" font-size="14" lengthAdjust="spacing" textLength="119" x="133" y="55.9951">username: String</text><ellipse cx="124" cy="68.9453" fill="none" rx="3" ry="3" style="stroke:#038048;stroke-width:1.0;"/><text fill="#000000" font-family="sans-serif" font-size="14" lengthAdjust="spacing" textLength="95" x="133" y="72.292">level: Number</text><rect fill="none" height="6" style="stroke:#C82930;stroke-width:1.0;" width="6" x="121" y="82.2422"/><text fill="#000000" font-family="sans-serif" font-size="14" lengthAdjust="spacing" textLength="167" x="133" y="88.5889">deck: Array&lt;Pokemon&gt;</text><rect fill="none" height="6" style="stroke:#C82930;stroke-width:1.0;" width="6" x="121" y="98.5391"/><text fill="#000000" font-family="sans-serif" font-size="14" lengthAdjust="spacing" textLength="186" x="133" y="104.8857">matches: Array&lt;Matches&gt;</text><line style="stroke:#181818;stroke-width:0.5;" x1="114" x2="324" y1="112.1875" y2="112.1875"/></g><!--MD5=[cbce687a05a9cd67b0897468438d0ab1]
class Pokemon--><g id="elem_Pokemon"><rect codeLine="9" fill="#F1F1F1" height="162.0781" id="Pokemon" rx="2.5" ry="2.5" style="stroke:#181818;stroke-width:0.5;" width="194" x="7" y="197"/><ellipse cx="66.75" cy="213" fill="#F1F1F1" rx="11" ry="11" style="stroke:#181818;stroke-width:1.0;"/><path d="M66.2344,213.5625 Q64.375,212.8594 63.7188,212.0938 Q63.0781,211.3125 63.0781,210 Q63.0781,208.3125 64.1563,207.3438 Q65.2344,206.375 67.1094,206.375 Q67.9688,206.375 68.8125,206.5781 Q69.6719,206.7656 70.5156,207.1563 L70.5156,209.5469 Q69.7344,208.9844 68.9063,208.7031 Q68.0938,208.4063 67.2969,208.4063 Q66.4219,208.4063 65.9375,208.7656 Q65.4688,209.125 65.4688,209.7813 Q65.4688,210.2969 65.8125,210.6406 Q66.1563,210.9688 67.25,211.375 L68.3125,211.7813 Q69.7969,212.3281 70.5,213.2344 Q71.2188,214.1406 71.2188,215.5156 Q71.2188,217.3906 70.1094,218.3125 Q69,219.2344 66.75,219.2344 Q65.8281,219.2344 64.9063,219.0156 Q63.9844,218.7969 63.125,218.375 L63.125,215.8438 Q64.0938,216.5313 65.0156,216.875 Q65.9375,217.2188 66.8281,217.2188 Q67.7344,217.2188 68.2344,216.8125 Q68.7344,216.3906 68.7344,215.6563 Q68.7344,215.0938 68.3906,214.6875 Q68.0625,214.2656 67.4375,214.0156 L66.2344,213.5625 Z " fill="#000000"/><text fill="#000000" font-family="sans-serif" font-size="14" lengthAdjust="spacing" textLength="66" x="87.25" y="217.8467">Pokemon</text><line style="stroke:#181818;stroke-width:0.5;" x1="8" x2="200" y1="229" y2="229"/><rect fill="none" height="6" style="stroke:#C82930;stroke-width:1.0;" width="6" x="15" y="239.6484"/><text fill="#000000" font-family="sans-serif" font-size="14" lengthAdjust="spacing" textLength="88" x="27" y="245.9951">name: String</text><rect fill="none" height="6" style="stroke:#C82930;stroke-width:1.0;" width="6" x="15" y="255.9453"/><text fill="#000000" font-family="sans-serif" font-size="14" lengthAdjust="spacing" textLength="95" x="27" y="262.292">image: String</text><rect fill="none" height="6" style="stroke:#C82930;stroke-width:1.0;" width="6" x="15" y="272.2422"/><text fill="#000000" font-family="sans-serif" font-size="14" lengthAdjust="spacing" textLength="168" x="27" y="278.5889">attacks: Array&lt;Attacks&gt;</text><rect fill="none" height="6" style="stroke:#C82930;stroke-width:1.0;" width="6" x="15" y="288.5391"/><text fill="#000000" font-family="sans-serif" font-size="14" lengthAdjust="spacing" textLength="121" x="27" y="294.8857">defence: Number</text><rect fill="none" height="6" style="stroke:#C82930;stroke-width:1.0;" width="6" x="15" y="304.8359"/><text fill="#000000" font-family="sans-serif" font-size="14" lengthAdjust="spacing" textLength="82" x="27" y="311.1826">hp: Number</text><line style="stroke:#181818;stroke-width:0.5;" x1="8" x2="200" y1="318.4844" y2="318.4844"/><rect fill="#F24D5C" height="6" style="stroke:#C82930;stroke-width:1.0;" width="6" x="15" y="329.1328"/><text fill="#000000" font-family="sans-serif" font-size="14" lengthAdjust="spacing" textLength="165" x="27" y="335.4795">SetAttributes(): Promise</text><ellipse cx="18" cy="348.4297" fill="#84BE84" rx="3" ry="3" style="stroke:#038048;stroke-width:1.0;"/><text fill="#000000" font-family="sans-serif" font-size="14" lengthAdjust="spacing" textLength="164" x="27" y="351.7764">get(what: String): String</text></g><!--MD5=[70842064fe3a98345918e37b59efda15]
class Matches--><g id="elem_Matches"><rect codeLine="20" fill="#F1F1F1" height="96.8906" id="Matches" rx="2.5" ry="2.5" style="stroke:#181818;stroke-width:0.5;" width="193" x="236.5" y="229.5"/><ellipse cx="299.25" cy="245.5" fill="#F1F1F1" rx="11" ry="11" style="stroke:#181818;stroke-width:1.0;"/><path d="M298.7344,246.0625 Q296.875,245.3594 296.2188,244.5938 Q295.5781,243.8125 295.5781,242.5 Q295.5781,240.8125 296.6563,239.8438 Q297.7344,238.875 299.6094,238.875 Q300.4688,238.875 301.3125,239.0781 Q302.1719,239.2656 303.0156,239.6563 L303.0156,242.0469 Q302.2344,241.4844 301.4063,241.2031 Q300.5938,240.9063 299.7969,240.9063 Q298.9219,240.9063 298.4375,241.2656 Q297.9688,241.625 297.9688,242.2813 Q297.9688,242.7969 298.3125,243.1406 Q298.6563,243.4688 299.75,243.875 L300.8125,244.2813 Q302.2969,244.8281 303,245.7344 Q303.7188,246.6406 303.7188,248.0156 Q303.7188,249.8906 302.6094,250.8125 Q301.5,251.7344 299.25,251.7344 Q298.3281,251.7344 297.4063,251.5156 Q296.4844,251.2969 295.625,250.875 L295.625,248.3438 Q296.5938,249.0313 297.5156,249.375 Q298.4375,249.7188 299.3281,249.7188 Q300.2344,249.7188 300.7344,249.3125 Q301.2344,248.8906 301.2344,248.1563 Q301.2344,247.5938 300.8906,247.1875 Q300.5625,246.7656 299.9375,246.5156 L298.7344,246.0625 Z " fill="#000000"/><text fill="#000000" font-family="sans-serif" font-size="14" lengthAdjust="spacing" textLength="59" x="319.75" y="250.3467">Matches</text><line style="stroke:#181818;stroke-width:0.5;" x1="237.5" x2="428.5" y1="261.5" y2="261.5"/><rect fill="none" height="6" style="stroke:#C82930;stroke-width:1.0;" width="6" x="244.5" y="272.1484"/><text fill="#000000" font-family="sans-serif" font-size="14" lengthAdjust="spacing" textLength="76" x="256.5" y="278.4951">id: Number</text><rect fill="none" height="6" style="stroke:#C82930;stroke-width:1.0;" width="6" x="244.5" y="288.4453"/><text fill="#000000" font-family="sans-serif" font-size="14" lengthAdjust="spacing" textLength="167" x="256.5" y="294.792">enemyUsername: String</text><rect fill="none" height="6" style="stroke:#C82930;stroke-width:1.0;" width="6" x="244.5" y="304.7422"/><text fill="#000000" font-family="sans-serif" font-size="14" lengthAdjust="spacing" textLength="86" x="256.5" y="311.0889">winner: Bool</text><line style="stroke:#181818;stroke-width:0.5;" x1="237.5" x2="428.5" y1="318.3906" y2="318.3906"/></g><!--MD5=[716b70d8338a9d57ba6e2a448be9d15c]
class Attacks--><g id="elem_Attacks"><rect codeLine="26" fill="#F1F1F1" height="96.8906" id="Attacks" rx="2.5" ry="2.5" style="stroke:#181818;stroke-width:0.5;" width="146" x="31" y="436"/><ellipse cx="74.35" cy="452" fill="#F1F1F1" rx="11" ry="11" style="stroke:#181818;stroke-width:1.0;"/><path d="M73.8344,452.5625 Q71.975,451.8594 71.3188,451.0938 Q70.6781,450.3125 70.6781,449 Q70.6781,447.3125 71.7563,446.3438 Q72.8344,445.375 74.7094,445.375 Q75.5688,445.375 76.4125,445.5781 Q77.2719,445.7656 78.1156,446.1563 L78.1156,448.5469 Q77.3344,447.9844 76.5063,447.7031 Q75.6938,447.4063 74.8969,447.4063 Q74.0219,447.4063 73.5375,447.7656 Q73.0688,448.125 73.0688,448.7813 Q73.0688,449.2969 73.4125,449.6406 Q73.7563,449.9688 74.85,450.375 L75.9125,450.7813 Q77.3969,451.3281 78.1,452.2344 Q78.8188,453.1406 78.8188,454.5156 Q78.8188,456.3906 77.7094,457.3125 Q76.6,458.2344 74.35,458.2344 Q73.4281,458.2344 72.5063,458.0156 Q71.5844,457.7969 70.725,457.375 L70.725,454.8438 Q71.6938,455.5313 72.6156,455.875 Q73.5375,456.2188 74.4281,456.2188 Q75.3344,456.2188 75.8344,455.8125 Q76.3344,455.3906 76.3344,454.6563 Q76.3344,454.0938 75.9906,453.6875 Q75.6625,453.2656 75.0375,453.0156 L73.8344,452.5625 Z " fill="#000000"/><text fill="#000000" font-family="sans-serif" font-size="14" lengthAdjust="spacing" textLength="51" x="94.65" y="456.8467">Attacks</text><line style="stroke:#181818;stroke-width:0.5;" x1="32" x2="176" y1="468" y2="468"/><rect fill="none" height="6" style="stroke:#C82930;stroke-width:1.0;" width="6" x="39" y="478.6484"/><text fill="#000000" font-family="sans-serif" font-size="14" lengthAdjust="spacing" textLength="88" x="51" y="484.9951">name: String</text><rect fill="none" height="6" style="stroke:#C82930;stroke-width:1.0;" width="6" x="39" y="494.9453"/><text fill="#000000" font-family="sans-serif" font-size="14" lengthAdjust="spacing" textLength="106" x="51" y="501.292">element: String</text><rect fill="none" height="6" style="stroke:#C82930;stroke-width:1.0;" width="6" x="39" y="511.2422"/><text fill="#000000" font-family="sans-serif" font-size="14" lengthAdjust="spacing" textLength="120" x="51" y="517.5889">damage: Number</text><line style="stroke:#181818;stroke-width:0.5;" x1="32" x2="176" y1="524.8906" y2="524.8906"/></g><!--MD5=[94af78ad74f3844d81bb4747c692bf96]
reverse link User to Pokemon--><g id="link_User_Pokemon"><path codeLine="32" d="M182.66,131.64 C171.43,152.39 158.96,175.45 147.31,196.98 " fill="none" id="User-backto-Pokemon" style="stroke:#181818;stroke-width:1.0;"/><polygon fill="#181818" points="188.94,120.05,182.5662,123.4227,183.228,130.6033,189.6018,127.2307,188.94,120.05" style="stroke:#181818;stroke-width:1.0;"/><polygon fill="#000000" points="174.6208,162.9641,181.5097,156.4071,176.3399,153.6102,174.6208,162.9641" style="stroke:#000000;stroke-width:1.0;"/><text fill="#000000" font-family="sans-serif" font-size="13" lengthAdjust="spacing" textLength="23" x="186" y="163.0669">has</text><text fill="#000000" font-family="sans-serif" font-size="13" lengthAdjust="spacing" textLength="8" x="176.5761" y="140.3198">1</text><text fill="#000000" font-family="sans-serif" font-size="13" lengthAdjust="spacing" textLength="7" x="143.98" y="185.889">*</text></g><!--MD5=[628682ea070204c6527be05498779beb]
reverse link User to Matches--><g id="link_User_Matches"><path codeLine="33" d="M255.16,131.91 C272.16,163.59 292.02,200.62 307.43,229.34 " fill="none" id="User-backto-Matches" style="stroke:#181818;stroke-width:1.0;"/><polygon fill="#181818" points="248.8,120.05,248.1099,127.228,254.4703,130.6258,255.1604,123.4478,248.8,120.05" style="stroke:#181818;stroke-width:1.0;"/><polygon fill="#000000" points="279.3638,162.9724,277.6775,153.6125,272.4979,156.3913,279.3638,162.9724" style="stroke:#000000;stroke-width:1.0;"/><text fill="#000000" font-family="sans-serif" font-size="13" lengthAdjust="spacing" textLength="23" x="286" y="163.0669">has</text><text fill="#000000" font-family="sans-serif" font-size="13" lengthAdjust="spacing" textLength="8" x="244.1056" y="140.3198">1</text><text fill="#000000" font-family="sans-serif" font-size="13" lengthAdjust="spacing" textLength="7" x="296.342" y="218.5264">*</text></g><!--MD5=[b2beca50c7562761ceeffe61d1271bc6]
reverse link Pokemon to Attacks--><g id="link_Pokemon_Attacks"><path codeLine="34" d="M104,372.45 C104,394.44 104,416.98 104,435.95 " fill="none" id="Pokemon-backto-Attacks" style="stroke:#181818;stroke-width:1.0;"/><polygon fill="#181818" points="104,359.24,100,365.24,104,371.24,108,365.24,104,359.24" style="stroke:#181818;stroke-width:1.0;"/><polygon fill="#000000" points="109,402.5664,111.9389,393.5213,106.0611,393.5213,109,402.5664" style="stroke:#000000;stroke-width:1.0;"/><text fill="#000000" font-family="sans-serif" font-size="13" lengthAdjust="spacing" textLength="23" x="118" y="402.0669">has</text><text fill="#000000" font-family="sans-serif" font-size="13" lengthAdjust="spacing" textLength="8" x="95.6438" y="379.2127">1</text><text fill="#000000" font-family="sans-serif" font-size="13" lengthAdjust="spacing" textLength="7" x="96.4859" y="424.8023">*</text></g><!--MD5=[c5d7a720824a0986f2f13c346c9df44c]
@startuml decentramon_put_GUN

struct User { 
    + username: String
    + level: Number
    - deck: Array<Pokemon>
    - matches: Array<Matches>
}

struct Pokemon {
    - name: String
    - level: Number
    - attacks: Array<Attacks>
    - defence: Number
    - hp: Number

    - SetAttributes(): Promise
    + get(what: String): String
}

struct Matches {
    - id: Number
    - enemyUsername: String
    - winner: Bool
}

struct Attacks {
    - name: String
    - element: String
    - damage: Number
}

User "1" *- - "*" Pokemon: has >
User "1" *- - "*" Matches: has >
Pokemon "1" *- - "*" Attacks: has >

@enduml

PlantUML version 1.2022.7(Mon Aug 22 19:01:30 CEST 2022)
(GPL source distribution)
Java Runtime: Java(TM) SE Runtime Environment
JVM: Java HotSpot(TM) 64-Bit Server VM
Default Encoding: UTF-8
Language: it
Country: IT
--></g></svg>